<?xml version="1.0" standalone="no"?>
<!DOCTYPE svg PUBLIC "-//W3C//DTD SVG 20010904//EN"
 "http://www.w3.org/TR/2001/REC-SVG-20010904/DTD/svg10.dtd">
<svg version="1.0" xmlns="http://www.w3.org/2000/svg"
 width="1014.000000pt" height="1014.000000pt" viewBox="0 0 1014.000000 1014.000000"
 preserveAspectRatio="xMidYMid meet">
<metadata>
Created by potrace 1.11, written by Peter Selinger 2001-2013
</metadata>
<g transform="translate(0.000000,1014.000000) scale(0.100000,-0.100000)"
fill="#000000" stroke="none">
<path d="M4440 10110 c10 -7 11 -10 3 -10 -7 0 -13 -7 -13 -15 0 -8 5 -15 11
-15 6 0 3 -7 -6 -17 -13 -13 -35 -16 -105 -15 -82 1 -115 -4 -164 -24 -13 -5
-17 -4 -13 4 9 14 -90 27 -138 18 -31 -6 -51 -26 -25 -26 20 0 4 -25 -25 -38
-20 -9 -79 -13 -182 -13 l-153 -1 0 -39 c0 -24 -5 -39 -12 -40 -7 0 -56 -1
-108 -1 -52 0 -102 -5 -110 -10 -11 -6 -9 -7 8 -3 24 7 26 -1 12 -45 -8 -24
-8 -24 -9 -2 -1 12 -6 22 -12 22 -6 0 -9 -9 -6 -20 4 -17 0 -20 -31 -21 -21
-1 -46 -1 -57 0 -15 2 -17 0 -6 -7 7 -6 10 -15 6 -22 -4 -7 -10 -8 -14 -4 -11
15 -50 34 -71 34 -24 0 -26 -16 -4 -28 15 -8 14 -12 -6 -32 -20 -20 -24 -21
-32 -6 -11 20 -28 21 -28 1 0 -9 -9 -15 -24 -15 -13 0 -27 -6 -29 -12 -4 -10
-6 -10 -6 0 -1 6 -8 12 -17 12 -8 0 -13 -4 -10 -9 8 -12 -18 -21 -34 -11 -10
6 -8 9 6 13 11 3 5 5 -15 6 -32 1 -33 0 -29 -31 8 -53 3 -57 -63 -51 -50 4
-58 3 -53 -10 4 -12 0 -14 -16 -10 -16 4 -18 8 -8 14 10 7 9 9 -4 9 -13 0 -18
-8 -18 -25 0 -18 5 -25 20 -25 17 0 19 -2 8 -14 -9 -10 -15 -11 -20 -2 -6 8
-8 8 -8 -1 0 -8 -13 -13 -29 -13 -16 0 -32 -6 -34 -12 -4 -10 -6 -10 -6 0 -1
6 -11 12 -23 11 -21 0 -22 -1 -4 -8 19 -7 19 -8 -2 -13 -12 -4 -25 -2 -28 3
-3 5 -12 9 -20 9 -11 0 -14 -9 -11 -38 l5 -38 -83 2 -83 3 0 -36 c0 -41 -12
-52 -53 -47 -27 3 -28 1 -27 -31 1 -19 -1 -38 -5 -41 -3 -3 -35 -6 -71 -6 -42
0 -66 -5 -66 -12 0 -6 -5 -4 -11 4 -7 11 -8 2 -5 -33 3 -31 1 -45 -6 -41 -6 4
-14 0 -19 -7 -6 -10 -9 -11 -9 -1 0 6 -11 12 -25 12 -22 0 -25 -4 -25 -40 0
-44 1 -44 -89 -42 -30 0 -40 -3 -30 -9 10 -6 7 -9 -13 -9 -18 0 -28 -5 -28
-15 0 -8 5 -15 11 -15 18 0 -18 -29 -45 -36 -14 -3 -26 -10 -26 -16 0 -5 -4
-6 -10 -3 -6 4 -10 -7 -10 -24 0 -32 -4 -34 -62 -34 -14 0 -18 -8 -18 -38 0
-39 0 -39 -39 -39 -22 0 -41 -5 -44 -12 -4 -10 -7 -10 -18 0 -14 13 -59 17
-59 4 0 -4 19 -15 43 -24 30 -12 36 -17 20 -17 -17 -1 -23 -7 -24 -23 -1 -16
-3 -18 -6 -6 -5 21 -33 32 -33 13 0 -15 -11 -19 -39 -16 -7 2 -10 -2 -6 -8 3
-6 1 -11 -4 -11 -6 0 -11 5 -11 10 0 6 -4 10 -10 10 -5 0 -10 -18 -10 -40 0
-25 -5 -41 -12 -41 -7 -1 -24 -2 -38 -3 -21 -1 -25 -6 -26 -33 0 -40 -1 -42
-47 -45 -35 -2 -37 -4 -35 -35 2 -39 -3 -45 -36 -45 -14 0 -23 -4 -20 -9 3 -5
-2 -9 -11 -9 -12 0 -15 -7 -11 -30 4 -30 -4 -36 -43 -31 -7 2 -10 -2 -6 -8 3
-6 1 -11 -4 -11 -6 0 -11 5 -11 10 0 6 -4 10 -10 10 -5 0 -10 -18 -10 -40 0
-22 -4 -40 -8 -40 -4 0 -9 -14 -10 -32 -3 -40 -12 -51 -12 -15 0 18 -5 27 -16
27 -10 0 -14 -6 -11 -14 3 -8 1 -16 -4 -18 -9 -3 -15 -35 -18 -90 -1 -14 -10
-18 -43 -18 -32 0 -39 -3 -28 -10 10 -6 11 -10 3 -10 -8 0 -13 -13 -13 -30 0
-31 -5 -33 -52 -30 -27 1 -28 -1 -28 -44 0 -37 -3 -44 -16 -39 -9 3 -20 0 -25
-8 -6 -10 -9 -10 -9 -1 0 6 -7 12 -15 12 -12 0 -15 -16 -15 -80 l0 -80 -40 0
-40 0 -1 -42 c-1 -24 -1 -46 0 -50 0 -5 -8 -8 -19 -8 -12 0 -20 -7 -21 -17 0
-15 -2 -15 -8 2 -5 11 -7 23 -5 26 2 3 -4 6 -12 6 -12 0 -15 -13 -14 -61 2
-90 1 -96 -15 -96 -8 0 -15 -6 -15 -12 0 -9 -4 -8 -10 2 -8 12 -10 10 -11 -10
l-1 -25 -8 25 -7 25 -8 -29 c-5 -19 -4 -31 5 -36 9 -6 8 -11 -7 -19 -11 -5
-24 -7 -28 -3 -3 4 -6 2 -5 -3 5 -23 -1 -34 -15 -29 -10 4 -15 0 -16 -12 -1
-11 -5 -3 -9 16 l-8 35 0 -40 c0 -128 2 -123 -39 -127 -35 -3 -38 -6 -41 -36
-2 -18 2 -39 8 -47 8 -9 8 -15 0 -20 -5 -3 -10 -17 -10 -31 0 -21 -4 -24 -40
-24 l-40 0 1 -47 c3 -114 3 -113 -41 -113 l-40 0 0 -43 c0 -24 5 -48 12 -55 7
-7 8 -12 3 -12 -6 0 -11 -12 -12 -26 -1 -34 -20 -54 -32 -35 -5 7 -17 11 -27
9 -17 -3 -19 -14 -20 -126 -1 -68 -4 -126 -8 -129 -3 -4 -6 0 -6 8 0 11 -2 11
-10 -1 -6 -10 -10 -11 -10 -2 0 6 -11 12 -24 12 l-24 0 2 -120 c1 -108 -1
-120 -16 -120 -13 0 -18 -8 -18 -27 l-1 -28 -17 28 c-25 40 -32 33 -31 -27 1
-50 3 -54 24 -50 19 3 22 0 17 -22 -3 -19 -7 -22 -13 -12 -5 7 -9 9 -9 3 0 -5
-5 -3 -11 5 -7 11 -9 -1 -8 -45 1 -33 1 -79 0 -102 -1 -41 -2 -43 -32 -43 -30
0 -31 -1 -25 -32 4 -20 3 -29 -3 -23 -5 6 -11 21 -14 35 -2 14 -4 -1 -4 -34 0
-39 5 -60 14 -63 7 -3 13 -9 13 -15 0 -5 -4 -7 -9 -4 -14 9 -21 -40 -20 -134
0 -47 1 -114 0 -150 l-1 -66 -40 4 -40 4 0 -81 c0 -45 4 -81 8 -81 13 0 36
-74 24 -78 -5 -1 -7 -13 -4 -25 3 -12 2 -19 -3 -15 -4 4 -10 22 -14 39 -4 18
-7 -161 -7 -399 0 -327 3 -433 12 -436 8 -3 10 -14 6 -28 l-6 -23 -7 25 c-4
14 -7 -20 -7 -77 1 -92 3 -103 19 -103 13 0 19 10 22 38 l4 37 1 -37 c1 -26 7
-38 17 -38 16 0 18 -30 16 -210 -1 -94 6 -143 20 -134 5 3 9 1 9 -4 0 -6 -7
-12 -15 -16 -11 -4 -15 -21 -15 -61 l0 -55 40 0 c45 0 43 7 42 -115 0 -52 3
-73 8 -60 7 17 9 17 9 3 1 -27 0 -33 -8 -31 -3 1 -7 -25 -9 -58 -2 -65 5 -73
30 -31 l17 27 1 -27 c0 -18 5 -28 15 -28 16 0 16 0 17 -152 l1 -88 41 0 41 0
-1 -107 c-1 -60 0 -102 3 -95 4 10 8 8 18 -5 10 -13 10 -20 2 -25 -7 -4 2 -8
19 -8 39 0 41 -7 37 -92 -2 -55 0 -68 12 -68 18 0 20 16 3 23 -10 4 -10 6 0 6
6 1 12 9 13 19 0 14 2 14 8 -3 5 -11 6 -26 3 -33 -3 -10 2 -13 18 -10 23 3 23
1 22 -78 l-2 -81 37 -1 c20 -1 38 -3 40 -6 2 -2 5 -37 5 -78 1 -56 3 -65 8
-38 l7 35 2 -39 c1 -35 3 -38 26 -34 33 7 37 -1 37 -70 0 -85 4 -94 44 -90 18
1 39 -3 46 -10 7 -7 8 -12 2 -12 -7 0 -12 -29 -12 -70 -1 -56 1 -70 13 -70 11
0 15 11 15 38 0 20 5 44 10 52 7 11 10 0 10 -37 0 -40 4 -53 15 -53 16 0 18
-8 15 -52 -1 -25 2 -28 29 -28 17 0 31 5 31 10 0 6 5 10 10 10 6 0 9 -3 9 -7
-1 -5 -1 -45 0 -90 1 -68 4 -83 17 -83 12 0 15 11 14 53 -1 28 -1 57 0 62 4
19 18 -40 19 -76 1 -27 6 -38 19 -41 15 -4 18 -13 15 -44 -3 -29 -2 -35 6 -24
8 11 11 12 11 2 0 -9 10 -12 28 -10 25 3 27 0 30 -39 3 -45 15 -56 27 -25 6
16 7 16 16 0 6 -10 18 -18 27 -18 13 0 17 -8 16 -38 -2 -37 -1 -38 34 -40 20
-2 38 -5 41 -8 3 -2 4 -23 2 -46 -1 -32 1 -39 13 -35 8 3 17 -1 20 -10 5 -12
1 -14 -14 -10 -17 4 -20 0 -20 -24 0 -27 2 -29 20 -19 15 8 20 8 20 -1 0 -7
10 -9 30 -6 28 6 29 5 20 -19 -12 -30 -12 -34 -3 -33 5 1 15 1 23 0 13 -1 13
-3 0 -10 -8 -6 -18 -7 -22 -5 -4 3 -8 1 -8 -5 0 -5 19 -11 42 -13 41 -3 42 -4
43 -38 0 -33 2 -35 32 -35 40 -1 47 -7 47 -48 1 -29 4 -32 33 -32 41 -1 48 -8
45 -48 -2 -31 0 -33 35 -35 46 -4 48 -5 45 -47 -3 -33 -2 -34 40 -37 38 -3 43
-6 40 -26 -2 -12 2 -22 7 -22 6 0 11 4 11 10 0 5 11 -2 25 -14 18 -17 36 -23
61 -22 47 2 55 -5 57 -45 2 -32 4 -34 38 -32 30 2 36 -2 46 -28 6 -16 7 -29 2
-29 -5 0 -9 -7 -9 -15 0 -10 9 -14 29 -11 42 5 56 -7 53 -48 l-3 -35 77 0 c42
0 78 -1 80 -3 2 -2 4 -20 6 -41 2 -36 3 -37 40 -37 39 0 44 -8 39 -62 -2 -15
6 -18 48 -18 34 0 51 4 51 13 0 7 3 8 8 2 4 -5 16 -12 27 -13 26 -5 25 -4 27
-44 1 -33 3 -35 34 -32 40 3 49 -9 45 -54 -2 -30 0 -33 21 -30 12 2 22 9 21
15 -3 13 35 25 42 13 3 -5 -3 -13 -12 -19 -16 -9 -16 -10 5 -11 12 0 22 6 22
13 0 9 2 9 9 -1 4 -7 12 -12 17 -11 34 6 41 -2 37 -44 -3 -31 -1 -38 7 -27 6
10 10 11 10 3 0 -14 48 -14 67 -1 6 5 14 5 18 -2 3 -5 17 -10 31 -10 24 0 28
-7 24 -47 -1 -13 3 -23 9 -23 6 0 11 6 11 13 0 8 3 8 9 -2 6 -10 30 -15 67
-17 49 -2 59 -5 66 -23 4 -12 16 -21 28 -21 12 0 18 -4 15 -10 -3 -6 4 -10 17
-10 18 0 20 -2 8 -10 -13 -9 -13 -10 0 -10 8 0 29 4 45 8 25 7 34 5 54 -14 22
-20 23 -24 8 -30 -9 -3 -17 -15 -17 -26 0 -18 7 -19 117 -17 111 3 117 2 124
-19 5 -12 5 -22 1 -23 -4 0 2 -4 13 -9 17 -7 17 -9 3 -9 -10 -1 -18 -5 -18
-11 0 -5 32 -8 73 -8 39 1 57 4 40 6 -18 2 -33 7 -33 13 0 5 4 9 9 9 5 0 16 2
23 5 8 3 23 -4 35 -15 12 -11 30 -19 40 -18 10 0 33 0 51 0 27 -2 32 -6 32
-27 0 -22 4 -25 38 -26 l37 -1 -39 -9 c-72 -17 -52 -20 92 -16 128 3 145 2
164 -15 11 -10 16 -18 10 -18 -7 0 -12 -11 -12 -25 0 -24 1 -25 73 -24 90 2
115 7 96 21 -10 7 -7 8 11 3 73 -20 142 -26 156 -15 11 10 14 10 14 0 0 -7 13
-11 33 -10 84 5 97 1 97 -25 0 -23 4 -25 48 -26 26 0 56 -5 67 -10 14 -6 -1
-8 -50 -5 -38 2 -61 0 -50 -4 32 -11 705 -12 705 0 0 5 18 10 40 10 22 0 40
-4 40 -10 0 -5 94 -9 240 -8 133 1 235 5 228 9 -10 7 -10 9 0 9 18 0 15 18 -5
23 -16 4 -16 5 1 6 12 1 16 6 12 16 -5 15 31 20 107 15 15 -1 27 3 27 9 0 8 6
8 19 0 18 -12 62 -5 115 17 13 5 17 4 13 -3 -9 -14 63 -25 141 -22 46 2 59 6
59 18 0 59 0 58 66 65 72 7 74 7 107 4 16 -2 24 2 22 9 -1 7 2 13 8 13 5 0 10
-7 10 -15 0 -8 4 -15 9 -15 21 0 41 13 41 26 0 12 3 12 14 2 10 -9 11 -15 2
-20 -6 -4 1 -8 17 -8 23 0 27 4 27 28 0 15 -4 22 -8 16 -5 -9 -11 -8 -20 2
-10 12 -10 14 3 14 8 0 15 6 15 13 0 8 19 12 67 11 41 -1 71 3 75 10 6 8 8 7
8 -1 0 -16 42 -17 58 -1 9 9 12 9 12 0 0 -7 6 -12 14 -12 10 0 14 12 13 42
l-1 42 42 -1 c23 -1 42 3 42 9 0 6 6 5 15 -2 12 -10 18 -10 30 0 10 9 15 9 15
1 0 -6 5 -11 10 -11 6 0 10 16 8 35 -1 19 1 37 5 41 4 4 34 7 66 6 54 -1 60 2
64 21 l4 22 2 -22 c1 -17 7 -21 36 -20 35 1 46 11 23 20 -7 3 -1 6 15 6 22 1
27 6 27 26 0 26 6 28 62 28 15 0 25 3 23 7 -7 12 20 19 35 10 10 -6 8 -9 -6
-13 -11 -3 -5 -5 15 -6 33 -1 33 0 28 33 -6 41 18 67 51 55 11 -4 40 -7 64 -6
42 2 43 3 44 37 1 19 0 30 -3 23 -2 -7 -11 -9 -18 -7 -10 4 -11 9 -3 17 6 7
40 11 84 11 50 -1 73 2 71 10 -1 6 6 10 16 8 9 -2 17 2 17 8 0 5 -3 9 -7 9 -5
-1 -16 -1 -26 0 -15 1 -16 3 -5 15 7 8 15 10 16 5 6 -15 22 -10 22 6 0 14 30
21 68 16 8 -1 12 12 12 39 0 44 -2 43 118 43 42 -1 42 -1 42 36 0 20 5 43 10
51 7 10 10 11 10 2 0 -8 11 -11 30 -10 28 2 30 5 30 40 0 42 -3 40 90 40 41
-1 42 0 15 8 l-30 8 30 2 c17 1 36 2 43 1 6 -1 12 2 12 6 0 5 -10 9 -21 10
-12 1 -27 7 -33 14 -8 9 -7 10 6 6 9 -3 19 -1 22 6 3 9 5 9 5 0 1 -18 21 -16
21 2 0 8 6 15 13 15 29 0 65 25 66 47 3 46 5 53 13 53 4 0 8 -4 8 -10 0 -5 14
-10 30 -10 33 0 43 25 13 33 -16 4 -16 5 1 6 13 1 17 6 13 21 -5 18 0 20 37
20 35 0 42 3 43 20 1 11 -2 18 -8 15 -14 -9 -10 7 6 29 11 15 25 19 57 17 25
-1 44 3 49 11 7 10 9 10 9 1 0 -7 9 -13 21 -13 11 0 17 5 14 10 -3 5 -1 10 6
10 6 0 9 8 6 19 -9 35 11 52 50 45 l36 -7 -6 36 c-7 45 8 59 53 50 l33 -6 -6
36 c-7 44 8 59 51 51 l31 -6 -1 53 c-1 30 -6 57 -12 61 -8 5 -7 8 2 8 6 0 12
9 12 20 0 17 7 20 40 20 l40 0 0 40 0 40 40 0 40 0 0 45 c0 38 3 45 19 45 11
0 22 6 24 13 3 7 6 4 6 -6 1 -10 7 -17 14 -14 12 4 14 10 16 54 1 18 8 22 39
25 36 3 37 4 36 43 l0 40 43 -4 c27 -2 43 1 43 8 0 6 -4 11 -10 11 -5 0 -10 5
-10 11 0 5 5 7 11 4 6 -4 10 -1 8 6 -1 8 -1 38 0 67 l1 52 35 0 c19 0 35 5 35
10 0 6 -4 10 -9 10 -9 0 -6 48 3 58 3 3 6 -6 7 -19 l1 -24 7 25 c4 14 13 25
21 26 52 4 60 14 59 73 -2 83 -3 81 41 81 40 0 40 0 40 38 0 29 7 43 30 64 17
14 30 22 30 17 0 -5 4 -9 8 -9 5 0 9 27 10 60 1 65 7 84 24 74 7 -4 8 -2 4 5
-7 11 32 33 45 25 3 -2 6 12 7 31 1 20 -3 35 -10 35 -7 0 -7 4 1 13 7 10 7 17
0 24 -16 16 9 28 48 24 36 -3 43 11 42 79 -1 67 1 80 15 80 8 0 17 6 19 13 4
9 6 9 6 0 1 -7 11 -13 24 -13 17 0 19 2 7 10 -12 7 -12 12 -2 22 6 6 12 31 12
54 0 32 -4 44 -17 47 -17 4 -17 5 0 6 14 1 17 10 17 51 l0 50 39 0 39 0 -2 80
c-1 62 2 80 12 80 10 0 12 8 9 23 -3 12 -1 31 3 42 7 17 9 17 9 3 1 -22 31
-24 31 -3 0 8 4 15 8 15 4 0 8 33 8 73 1 39 -1 56 -3 37 -3 -19 -8 -39 -13
-44 -5 -5 -7 12 -4 40 3 27 10 51 14 54 5 3 10 23 12 45 2 32 6 39 21 37 14
-3 17 1 13 16 -4 10 -2 30 3 43 9 21 10 19 10 -18 1 -32 5 -43 17 -43 13 0 15
17 13 118 -2 184 -1 202 16 202 12 0 15 14 15 67 0 36 3 63 7 60 3 -4 5 -34 4
-67 -2 -55 0 -60 18 -60 14 0 21 6 21 20 0 11 -4 20 -10 20 -5 0 -10 15 -9 33
1 30 1 31 9 7 4 -14 8 66 8 182 0 129 4 214 11 226 6 12 11 33 12 49 l1 28 8
-28 c5 -16 6 -35 3 -43 -4 -10 3 -14 22 -14 23 0 25 3 20 23 -4 12 -11 26 -16
32 -5 5 -8 23 -8 40 1 23 3 25 6 8 9 -47 19 -21 20 53 1 57 -2 76 -13 81 -18
7 -19 80 -1 85 9 4 12 94 14 401 l2 397 -40 0 c-46 0 -42 -28 -41 275 0 131
-3 202 -9 188 -11 -29 -23 -30 -14 -2 6 19 4 21 -19 17 -15 -3 -29 0 -33 5 -4
6 -6 80 -5 164 2 130 0 153 -13 153 -11 0 -15 -12 -16 -42 0 -38 -1 -40 -10
-19 -5 13 -7 33 -3 43 4 15 1 19 -13 16 -15 -2 -19 5 -21 37 -2 22 -7 42 -12
45 -8 5 -14 44 -10 70 2 8 6 -1 10 -20 5 -25 7 -9 7 53 0 85 -6 104 -25 71 -8
-15 -12 -14 -32 6 -20 20 -21 24 -6 32 21 12 21 28 -2 28 -15 0 -17 10 -15 80
l2 80 -38 0 -38 0 -7 58 c-10 76 -9 72 -2 117 3 22 3 34 0 27 -5 -10 -9 -9
-19 5 -10 13 -10 20 -2 25 7 4 -4 8 -24 8 l-35 0 2 65 c2 36 0 64 -4 62 -13
-8 -53 13 -47 23 4 6 3 10 -2 9 -24 -4 -28 6 -26 81 2 74 0 80 -19 80 -14 0
-18 -5 -14 -16 5 -12 2 -15 -10 -10 -8 3 -21 6 -27 7 -7 0 -3 4 8 9 17 7 17 9
3 9 -12 1 -18 9 -19 24 -1 47 -9 82 -18 85 -5 2 -7 10 -4 18 3 8 -1 14 -11 14
-11 0 -16 -9 -16 -27 0 -36 -9 -25 -12 15 -1 18 -6 32 -10 32 -4 0 -8 18 -8
39 0 40 0 40 -42 43 l-41 3 1 60 c2 87 -3 98 -44 93 -33 -4 -34 -3 -34 29 0
25 -4 31 -15 27 -11 -5 -13 -2 -9 10 4 11 1 16 -10 16 -9 0 -16 -8 -17 -17 0
-14 -2 -15 -6 -3 -3 8 -10 18 -16 21 -5 4 -9 36 -9 73 0 43 -4 66 -12 66 -6 0
-4 5 4 10 9 6 10 10 3 10 -7 0 -17 -8 -22 -17 -10 -17 -10 -17 -11 1 0 13 -5
17 -20 13 -18 -5 -20 0 -20 37 l0 42 -37 0 c-38 -1 -38 -1 -41 42 l-3 43 -42
-3 -42 -3 3 43 2 42 -40 0 c-32 0 -40 4 -40 18 0 10 -6 24 -12 30 -10 10 -10
14 0 21 8 5 -1 8 -24 9 -20 1 -39 3 -41 6 -3 2 -5 25 -5 50 0 26 -4 44 -9 40
-5 -3 -9 4 -9 16 0 12 5 18 10 15 6 -3 10 3 10 14 0 17 -6 21 -30 21 -16 0
-30 -4 -30 -10 0 -5 -5 -10 -11 -10 -5 0 -7 5 -4 10 3 6 -4 11 -17 11 -14 1
-17 3 -7 6 10 2 16 16 17 38 1 34 1 35 -38 35 -36 0 -40 3 -40 25 0 19 -4 23
-17 18 -16 -6 -16 -4 1 15 l19 22 -34 -1 c-20 -1 -26 -3 -15 -6 14 -4 15 -7 6
-13 -7 -4 -21 -5 -32 -2 -15 4 -17 7 -6 13 8 6 1 8 -22 8 -59 -2 -60 -1 -60
41 l0 40 -40 0 -40 0 0 40 c0 40 0 40 -39 40 -43 0 -52 11 -44 54 5 27 4 28
-32 24 -34 -2 -39 0 -45 22 -4 14 -6 32 -5 40 2 11 -7 17 -26 18 -22 2 -29 -2
-30 -15 -1 -10 -6 -3 -11 15 -9 25 -17 32 -37 33 -17 1 -20 3 -8 6 9 2 17 10
17 16 0 7 4 6 10 -3 8 -12 10 -11 10 7 0 19 -5 22 -42 21 -24 0 -62 0 -85 1
l-42 1 5 40 6 40 -37 0 c-20 0 -43 7 -51 15 -9 8 -11 15 -5 15 6 0 11 7 11 15
0 10 -10 15 -27 15 -18 0 -24 3 -15 8 7 5 -14 9 -49 10 -34 1 -64 4 -67 7 -3
3 -5 20 -4 39 1 34 1 35 -38 33 -33 -2 -40 1 -40 15 0 19 -16 25 -22 9 -1 -5
-9 -3 -16 5 -11 12 -10 14 5 15 10 1 21 1 26 0 4 0 7 4 7 9 0 6 -8 10 -17 8
-10 -2 -17 2 -16 8 1 6 -22 11 -60 12 -34 1 -63 6 -65 12 -2 6 -8 8 -13 4 -5
-3 -9 0 -9 5 0 6 -8 11 -17 12 -15 0 -15 2 2 8 11 5 23 7 28 4 4 -2 7 1 7 6 0
6 -6 11 -12 11 -10 0 -10 2 0 8 7 5 -23 8 -68 8 -48 -1 -80 3 -81 9 -1 5 0 25
1 43 1 30 -1 33 -22 30 -12 -2 -22 -9 -21 -15 1 -6 -7 -13 -17 -16 -22 -6 -29
18 -7 26 21 9 -16 8 -48 -2 -38 -11 -50 2 -48 52 1 26 -3 37 -13 37 -8 0 -14
-5 -14 -11 0 -8 -4 -8 -12 -2 -17 14 -81 13 -90 -1 -5 -8 -8 -7 -8 2 0 6 -6
12 -14 12 -8 0 -17 -6 -19 -12 -4 -10 -6 -10 -6 0 -1 7 -14 12 -31 12 -31 0
-33 5 -30 52 1 26 1 26 -68 26 -80 0 -112 8 -112 28 0 8 5 14 10 14 6 0 10 9
10 20 0 25 -20 27 -21 3 0 -15 -2 -15 -7 -3 -8 18 -52 26 -52 9 0 -8 -4 -8
-12 -2 -7 5 -32 11 -55 12 -37 2 -42 -1 -37 -16 5 -17 5 -17 -9 0 -9 10 -24
18 -34 17 -10 -1 -35 -2 -55 -1 -37 1 -38 2 -38 41 l0 41 -40 -3 c-22 -1 -40
-6 -40 -10 0 -4 -7 -8 -15 -8 -8 0 -15 5 -15 10 0 6 -42 10 -105 10 -98 0
-105 1 -105 20 0 12 -8 21 -22 24 -13 3 -32 7 -43 9 -11 3 -1 5 23 6 82 2 40
16 -58 19 -101 3 -119 -1 -77 -18 21 -9 21 -9 -4 -9 -16 -1 -29 6 -33 14 -4
12 -20 16 -68 14 -35 -1 -93 -1 -130 0 -62 1 -68 3 -68 22 0 19 -5 21 -40 17
-28 -2 -40 0 -40 9 0 7 -12 13 -27 14 -25 0 -26 1 -8 9 11 4 -62 8 -172 8
-113 0 -193 -3 -193 -9 0 -5 -36 -9 -80 -9 -44 0 -80 3 -80 8 0 4 -127 8 -282
9 -179 1 -277 -1 -268 -7z"/>
<path d="M5569 10113 c19 -4 21 -7 10 -14 -10 -6 -4 -9 19 -9 34 0 43 14 16
24 -9 3 -28 5 -42 5 -26 -2 -26 -2 -3 -6z"/>
<path d="M3950 9990 c0 -5 5 -10 10 -10 6 0 10 5 10 10 0 6 -4 10 -10 10 -5 0
-10 -4 -10 -10z"/>
<path d="M3150 9784 c0 -9 5 -14 12 -12 18 6 21 28 4 28 -9 0 -16 -7 -16 -16z"/>
<path d="M1248 8433 c6 -2 18 -2 25 0 6 3 1 5 -13 5 -14 0 -19 -2 -12 -5z"/>
<path d="M9428 7633 c6 -2 18 -2 25 0 6 3 1 5 -13 5 -14 0 -19 -2 -12 -5z"/>
<path d="M9842 6748 c6 -18 28 -21 28 -4 0 9 -7 16 -16 16 -9 0 -14 -5 -12
-12z"/>
<path d="M9820 3415 c0 -8 7 -15 15 -15 8 0 15 7 15 15 0 8 -7 15 -15 15 -8 0
-15 -7 -15 -15z"/>
<path d="M9435 2530 c-3 -5 3 -10 14 -10 12 0 21 5 21 10 0 6 -6 10 -14 10 -8
0 -18 -4 -21 -10z"/>
<path d="M1710 1250 c0 -5 9 -10 21 -10 11 0 17 5 14 10 -3 6 -13 10 -21 10
-8 0 -14 -4 -14 -10z"/>
<path d="M2990 455 c0 -9 10 -15 26 -15 23 0 24 2 10 15 -8 8 -19 15 -25 15
-6 0 -11 -7 -11 -15z"/>
<path d="M7130 450 c0 -5 5 -10 10 -10 6 0 10 5 10 10 0 6 -4 10 -10 10 -5 0
-10 -4 -10 -10z"/>
<path d="M3630 255 c0 -8 5 -15 10 -15 6 0 10 7 10 15 0 8 -4 15 -10 15 -5 0
-10 -7 -10 -15z"/>
</g>
</svg>
